<svg width="448" height="62" viewBox="0 0 448 62" fill="none" xmlns="http://www.w3.org/2000/svg">
<g filter="url(#filter0_dddddd_47_229)">
<path d="M42.3457 19.0664L40.6172 20.209C39.5625 18.6465 38.1855 17.416 36.4863 16.5176C34.8066 15.5996 32.9805 15.1406 31.0078 15.1406C27.8047 15.1406 25.0703 16.2734 22.8047 18.5391C20.5391 20.8047 19.4062 23.5391 19.4062 26.7422C19.4062 29.9453 20.5391 32.6797 22.8047 34.9453C25.0703 37.2109 27.8047 38.3438 31.0078 38.3438C32.9805 38.3438 34.8066 37.8848 36.4863 36.9668C38.1855 36.0488 39.5625 34.8086 40.6172 33.2461L42.3164 34.4766C41.0664 36.3125 39.4453 37.7676 37.4531 38.8418C35.4609 39.916 33.3125 40.4531 31.0078 40.4531C29.1523 40.4531 27.375 40.0918 25.6758 39.3691C23.9961 38.6465 22.541 37.6699 21.3105 36.4395C20.0801 35.209 19.1035 33.7539 18.3809 32.0742C17.6582 30.375 17.2969 28.5977 17.2969 26.7422C17.2969 24.8867 17.6582 23.1191 18.3809 21.4395C19.1035 19.7402 20.0801 18.2754 21.3105 17.0449C22.541 15.8145 23.9961 14.8379 25.6758 14.1152C27.375 13.3926 29.1523 13.0312 31.0078 13.0312C33.332 13.0312 35.4902 13.5781 37.4824 14.6719C39.4746 15.7461 41.0957 17.2109 42.3457 19.0664ZM45.832 16.6641L44.0742 17.8066C42.6289 15.6973 40.7539 14.0273 38.4492 12.7969C36.1641 11.5469 33.6836 10.9219 31.0078 10.9219C28.1367 10.9219 25.4902 11.6348 23.0684 13.0605C20.6465 14.4668 18.7227 16.3809 17.2969 18.8027C15.8906 21.2246 15.1875 23.8711 15.1875 26.7422C15.1875 29.6133 15.8906 32.2598 17.2969 34.6816C18.7227 37.1035 20.6465 39.0273 23.0684 40.4531C25.4902 41.8594 28.1367 42.5625 31.0078 42.5625C33.6836 42.5625 36.1738 41.9375 38.4785 40.6875C40.7832 39.4375 42.6582 37.748 44.1035 35.6191L45.832 36.8203C44.1914 39.2422 42.0625 41.1562 39.4453 42.5625C36.8477 43.9688 34.0352 44.6719 31.0078 44.6719C27.7656 44.6719 24.7676 43.8711 22.0137 42.2695C19.2598 40.668 17.082 38.4902 15.4805 35.7363C13.8789 32.9824 13.0781 29.9844 13.0781 26.7422C13.0781 23.5 13.8789 20.502 15.4805 17.748C17.082 14.9941 19.2598 12.8164 22.0137 11.2148C24.7676 9.61328 27.7656 8.8125 31.0078 8.8125C34.0352 8.8125 36.8477 9.51562 39.4453 10.9219C42.0625 12.3281 44.1914 14.2422 45.832 16.6641ZM49.3477 14.3203L47.5898 15.4629C45.7539 12.7676 43.3711 10.6387 40.4414 9.07617C37.5312 7.49414 34.3867 6.70312 31.0078 6.70312C28.293 6.70312 25.6953 7.23047 23.2148 8.28516C20.7344 9.33984 18.5957 10.7656 16.7988 12.5625C15.0215 14.3398 13.6055 16.4688 12.5508 18.9492C11.4961 21.4297 10.9688 24.0273 10.9688 26.7422C10.9688 29.457 11.4961 32.0547 12.5508 34.5352C13.6055 37.0156 15.0215 39.1543 16.7988 40.9512C18.5957 42.7285 20.7344 44.1445 23.2148 45.1992C25.6953 46.2539 28.293 46.7812 31.0078 46.7812C34.4062 46.7812 37.5605 45.9902 40.4707 44.4082C43.3809 42.8262 45.7539 40.6875 47.5898 37.9922L49.2891 39.252C47.2578 42.2207 44.6309 44.5742 41.4082 46.3125C38.2051 48.0312 34.7383 48.8906 31.0078 48.8906C27.0039 48.8906 23.3027 47.9043 19.9043 45.9316C16.5059 43.9395 13.8105 41.2441 11.8184 37.8457C9.8457 34.4473 8.85938 30.7461 8.85938 26.7422C8.85938 22.7383 9.8457 19.0371 11.8184 15.6387C13.8105 12.2402 16.5059 9.55469 19.9043 7.58203C23.3027 5.58984 27.0039 4.59375 31.0078 4.59375C34.7578 4.59375 38.2441 5.47266 41.4668 7.23047C44.6895 8.96875 47.3164 11.332 49.3477 14.3203ZM52.8047 11.918L51.0469 13.0605C48.8203 9.79883 45.9395 7.2207 42.4043 5.32617C38.8887 3.43164 35.0898 2.48438 31.0078 2.48438C27.7266 2.48438 24.582 3.12891 21.5742 4.41797C18.5859 5.6875 16.0078 7.40625 13.8398 9.57422C11.6719 11.7422 9.94336 14.3301 8.6543 17.3379C7.38477 20.3262 6.75 23.4609 6.75 26.7422C6.75 30.0234 7.38477 33.168 8.6543 36.1758C9.94336 39.1641 11.6719 41.7422 13.8398 43.9102C16.0078 46.0781 18.5859 47.8066 21.5742 49.0957C24.582 50.3652 27.7266 51 31.0078 51C35.0898 51 38.8984 50.043 42.4336 48.1289C45.9688 46.2148 48.8496 43.627 51.0762 40.3652L52.7754 41.6543C50.3535 45.1699 47.2285 47.9629 43.4004 50.0332C39.5723 52.084 35.4414 53.1094 31.0078 53.1094C27.4336 53.1094 24.0156 52.4062 20.7539 51C17.5117 49.6133 14.709 47.748 12.3457 45.4043C10.002 43.041 8.12695 40.2383 6.7207 36.9961C5.33398 33.7344 4.64062 30.3164 4.64062 26.7422C4.64062 23.168 5.33398 19.7598 6.7207 16.5176C8.12695 13.2559 10.002 10.4531 12.3457 8.10938C14.709 5.74609 17.5117 3.87109 20.7539 2.48438C24.0156 1.07812 27.4336 0.375 31.0078 0.375C35.4609 0.375 39.6016 1.41016 43.4297 3.48047C47.2578 5.55078 50.3828 8.36328 52.8047 11.918ZM69.5332 2.48438H71.6426V51H69.5332V2.48438ZM65.3145 2.48438H67.4238V51H65.3145V2.48438ZM61.0957 2.48438H63.2051V51H61.0957V2.48438ZM56.877 2.48438H58.9863V51H56.877V2.48438ZM111.662 27.6504L109.553 24.1641V2.48438H111.662V27.6504ZM115.881 34.5645L113.771 31.0195V2.48438H115.881V34.5645ZM120.1 41.5664L117.99 37.9922V2.48438H120.1V41.5664ZM89.8652 25.834L91.9746 29.3203V51H89.8652V25.834ZM85.6465 18.9199L87.7559 22.4648V51H85.6465V18.9199ZM81.4277 11.918L83.5371 15.4922V51H81.4277V11.918ZM82.1602 2.48438H84.6211L114.445 51H111.984L82.1602 2.48438ZM87.1406 2.48438H89.6309L119.426 51H116.906L87.1406 2.48438ZM92.0918 2.48438H94.5527L122.209 47.5723V2.48438H124.318V51C124.318 51 123.488 51 121.828 51L92.0918 2.48438ZM79.3184 5.91211V51H77.209V2.48438C77.209 2.48438 78.0488 2.48438 79.7285 2.48438L109.465 51H107.033L79.3184 5.91211ZM140.432 51H138.322V2.48438H140.432V51ZM136.213 51H134.104V2.48438H136.213V51ZM131.994 51H129.885V2.48438H131.994V51ZM144.65 40.4531H167.092V42.5625H144.65V44.6719H167.092V46.7812H144.65V48.8906H167.092V51H142.541V2.48438H167.092V4.59375H144.65V6.70312H167.092V8.8125H144.65V10.9219H167.092V13.0312H144.65V21.4688H156.164V23.5781H144.65V25.6875H156.164V27.7969H144.65V29.9062H156.164V32.0156H144.65V40.4531ZM207.229 33.3047L209.338 29.3203V51H207.229V33.3047ZM211.447 25.2188L213.557 21.2344V51H211.447V25.2188ZM215.666 17.25L217.775 13.2363V51H215.666V17.25ZM201.516 32.3086L200.314 30.1113L214.846 2.48438H217.219L201.516 32.3086ZM199.084 27.709L197.854 25.4824L210.041 2.48438H212.443L199.084 27.709ZM184.963 29.5547L187.072 33.5391V51H184.963V29.5547ZM180.744 21.5273L182.854 25.5117V51H180.744V21.5273ZM176.525 13.5L178.635 17.5137V51H176.525V13.5ZM193.576 38.3438H191.203L174.416 6.49805V51H172.307V2.48438H174.68L193.576 38.3438ZM198.352 38.3438H195.949L177.082 2.48438H179.484L198.352 38.3438ZM219.885 6.49805L203.098 38.3438H200.695L181.857 2.48438H184.23L201.926 36.1172L219.592 2.48438H221.994V51H219.885V6.49805ZM248.508 36.7617L249.357 34.6523H256.564L257.414 36.7617H248.508ZM246.867 40.9805L247.688 38.8711H258.205L259.113 40.9805H246.867ZM245.227 45.1992L246.047 43.0898H259.875L260.754 45.1992H245.227ZM228.088 51H225.803L244.992 2.48438H247.277L266.438 51H264.182L246.135 5.32617L228.088 51ZM246.398 10.3359L247.6 13.0312L232.6 51H230.344L246.398 10.3359ZM248.742 15.9023L249.855 18.8027L237.17 51H234.885L248.742 15.9023ZM250.969 21.7031L252.082 24.6621L241.682 51H239.426L250.969 21.7031ZM280.061 51H277.775L258.615 2.48438H260.871L280.061 51ZM256.33 2.48438L275.52 51H273.264L254.074 2.48438H256.33ZM251.789 2.48438L270.979 51H268.693L249.533 2.48438H251.789Z" fill="#EA4335" fill-opacity="0.5"/>
<path d="M282.814 4.59375V2.48438H314.455V4.59375H282.814ZM282.814 8.8125V6.70312H314.455V8.8125H282.814ZM282.814 13.0312V10.9219H314.455V13.0312H306.018V51H303.908V13.0312H301.799V51H299.689V13.0312H297.58V51H295.471V13.0312H293.361V51H291.252V13.0312H282.814ZM331.916 2.48438H334.025V51H331.916V2.48438ZM327.697 2.48438H329.807V51H327.697V2.48438ZM323.479 2.48438H325.588V51H323.479V2.48438ZM319.26 2.48438H321.369V51H319.26V2.48438ZM376.213 19.0664L374.484 20.209C373.43 18.6465 372.053 17.416 370.354 16.5176C368.674 15.5996 366.848 15.1406 364.875 15.1406C361.672 15.1406 358.938 16.2734 356.672 18.5391C354.406 20.8047 353.273 23.5391 353.273 26.7422C353.273 29.9453 354.406 32.6797 356.672 34.9453C358.938 37.2109 361.672 38.3438 364.875 38.3438C366.848 38.3438 368.674 37.8848 370.354 36.9668C372.053 36.0488 373.43 34.8086 374.484 33.2461L376.184 34.4766C374.934 36.3125 373.312 37.7676 371.32 38.8418C369.328 39.916 367.18 40.4531 364.875 40.4531C363.02 40.4531 361.242 40.0918 359.543 39.3691C357.863 38.6465 356.408 37.6699 355.178 36.4395C353.947 35.209 352.971 33.7539 352.248 32.0742C351.525 30.375 351.164 28.5977 351.164 26.7422C351.164 24.8867 351.525 23.1191 352.248 21.4395C352.971 19.7402 353.947 18.2754 355.178 17.0449C356.408 15.8145 357.863 14.8379 359.543 14.1152C361.242 13.3926 363.02 13.0312 364.875 13.0312C367.199 13.0312 369.357 13.5781 371.35 14.6719C373.342 15.7461 374.963 17.2109 376.213 19.0664ZM379.699 16.6641L377.941 17.8066C376.496 15.6973 374.621 14.0273 372.316 12.7969C370.031 11.5469 367.551 10.9219 364.875 10.9219C362.004 10.9219 359.357 11.6348 356.936 13.0605C354.514 14.4668 352.59 16.3809 351.164 18.8027C349.758 21.2246 349.055 23.8711 349.055 26.7422C349.055 29.6133 349.758 32.2598 351.164 34.6816C352.59 37.1035 354.514 39.0273 356.936 40.4531C359.357 41.8594 362.004 42.5625 364.875 42.5625C367.551 42.5625 370.041 41.9375 372.346 40.6875C374.65 39.4375 376.525 37.748 377.971 35.6191L379.699 36.8203C378.059 39.2422 375.93 41.1562 373.312 42.5625C370.715 43.9688 367.902 44.6719 364.875 44.6719C361.633 44.6719 358.635 43.8711 355.881 42.2695C353.127 40.668 350.949 38.4902 349.348 35.7363C347.746 32.9824 346.945 29.9844 346.945 26.7422C346.945 23.5 347.746 20.502 349.348 17.748C350.949 14.9941 353.127 12.8164 355.881 11.2148C358.635 9.61328 361.633 8.8125 364.875 8.8125C367.902 8.8125 370.715 9.51562 373.312 10.9219C375.93 12.3281 378.059 14.2422 379.699 16.6641ZM383.215 14.3203L381.457 15.4629C379.621 12.7676 377.238 10.6387 374.309 9.07617C371.398 7.49414 368.254 6.70312 364.875 6.70312C362.16 6.70312 359.562 7.23047 357.082 8.28516C354.602 9.33984 352.463 10.7656 350.666 12.5625C348.889 14.3398 347.473 16.4688 346.418 18.9492C345.363 21.4297 344.836 24.0273 344.836 26.7422C344.836 29.457 345.363 32.0547 346.418 34.5352C347.473 37.0156 348.889 39.1543 350.666 40.9512C352.463 42.7285 354.602 44.1445 357.082 45.1992C359.562 46.2539 362.16 46.7812 364.875 46.7812C368.273 46.7812 371.428 45.9902 374.338 44.4082C377.248 42.8262 379.621 40.6875 381.457 37.9922L383.156 39.252C381.125 42.2207 378.498 44.5742 375.275 46.3125C372.072 48.0312 368.605 48.8906 364.875 48.8906C360.871 48.8906 357.17 47.9043 353.771 45.9316C350.373 43.9395 347.678 41.2441 345.686 37.8457C343.713 34.4473 342.727 30.7461 342.727 26.7422C342.727 22.7383 343.713 19.0371 345.686 15.6387C347.678 12.2402 350.373 9.55469 353.771 7.58203C357.17 5.58984 360.871 4.59375 364.875 4.59375C368.625 4.59375 372.111 5.47266 375.334 7.23047C378.557 8.96875 381.184 11.332 383.215 14.3203ZM386.672 11.918L384.914 13.0605C382.688 9.79883 379.807 7.2207 376.271 5.32617C372.756 3.43164 368.957 2.48438 364.875 2.48438C361.594 2.48438 358.449 3.12891 355.441 4.41797C352.453 5.6875 349.875 7.40625 347.707 9.57422C345.539 11.7422 343.811 14.3301 342.521 17.3379C341.252 20.3262 340.617 23.4609 340.617 26.7422C340.617 30.0234 341.252 33.168 342.521 36.1758C343.811 39.1641 345.539 41.7422 347.707 43.9102C349.875 46.0781 352.453 47.8066 355.441 49.0957C358.449 50.3652 361.594 51 364.875 51C368.957 51 372.766 50.043 376.301 48.1289C379.836 46.2148 382.717 43.627 384.943 40.3652L386.643 41.6543C384.221 45.1699 381.096 47.9629 377.268 50.0332C373.439 52.084 369.309 53.1094 364.875 53.1094C361.301 53.1094 357.883 52.4062 354.621 51C351.379 49.6133 348.576 47.748 346.213 45.4043C343.869 43.041 341.994 40.2383 340.588 36.9961C339.201 33.7344 338.508 30.3164 338.508 26.7422C338.508 23.168 339.201 19.7598 340.588 16.5176C341.994 13.2559 343.869 10.4531 346.213 8.10938C348.576 5.74609 351.379 3.87109 354.621 2.48438C357.883 1.07812 361.301 0.375 364.875 0.375C369.328 0.375 373.469 1.41016 377.297 3.48047C381.125 5.55078 384.25 8.36328 386.672 11.918ZM411.691 36.7617L412.541 34.6523H419.748L420.598 36.7617H411.691ZM410.051 40.9805L410.871 38.8711H421.389L422.297 40.9805H410.051ZM408.41 45.1992L409.23 43.0898H423.059L423.938 45.1992H408.41ZM391.271 51H388.986L408.176 2.48438H410.461L429.621 51H427.365L409.318 5.32617L391.271 51ZM409.582 10.3359L410.783 13.0312L395.783 51H393.527L409.582 10.3359ZM411.926 15.9023L413.039 18.8027L400.354 51H398.068L411.926 15.9023ZM414.152 21.7031L415.266 24.6621L404.865 51H402.609L414.152 21.7031ZM443.244 51H440.959L421.799 2.48438H424.055L443.244 51ZM419.514 2.48438L438.703 51H436.447L417.258 2.48438H419.514ZM414.973 2.48438L434.162 51H431.877L412.717 2.48438H414.973Z" fill="white"/>
</g>
<defs>
<filter id="filter0_dddddd_47_229" x="0.640625" y="0.375" width="446.604" height="60.7344" filterUnits="userSpaceOnUse" color-interpolation-filters="sRGB">
<feFlood flood-opacity="0" result="BackgroundImageFix"/>
<feColorMatrix in="SourceAlpha" type="matrix" values="0 0 0 0 0 0 0 0 0 0 0 0 0 0 0 0 0 0 127 0" result="hardAlpha"/>
<feOffset dy="4"/>
<feGaussianBlur stdDeviation="2"/>
<feComposite in2="hardAlpha" operator="out"/>
<feColorMatrix type="matrix" values="0 0 0 0 0 0 0 0 0 0 0 0 0 0 0 0 0 0 0.25 0"/>
<feBlend mode="normal" in2="BackgroundImageFix" result="effect1_dropShadow_47_229"/>
<feColorMatrix in="SourceAlpha" type="matrix" values="0 0 0 0 0 0 0 0 0 0 0 0 0 0 0 0 0 0 127 0" result="hardAlpha"/>
<feOffset dy="4"/>
<feGaussianBlur stdDeviation="2"/>
<feComposite in2="hardAlpha" operator="out"/>
<feColorMatrix type="matrix" values="0 0 0 0 0 0 0 0 0 0 0 0 0 0 0 0 0 0 0.25 0"/>
<feBlend mode="normal" in2="effect1_dropShadow_47_229" result="effect2_dropShadow_47_229"/>
<feColorMatrix in="SourceAlpha" type="matrix" values="0 0 0 0 0 0 0 0 0 0 0 0 0 0 0 0 0 0 127 0" result="hardAlpha"/>
<feOffset dy="4"/>
<feGaussianBlur stdDeviation="2"/>
<feComposite in2="hardAlpha" operator="out"/>
<feColorMatrix type="matrix" values="0 0 0 0 0 0 0 0 0 0 0 0 0 0 0 0 0 0 0.25 0"/>
<feBlend mode="normal" in2="effect2_dropShadow_47_229" result="effect3_dropShadow_47_229"/>
<feColorMatrix in="SourceAlpha" type="matrix" values="0 0 0 0 0 0 0 0 0 0 0 0 0 0 0 0 0 0 127 0" result="hardAlpha"/>
<feOffset dy="4"/>
<feGaussianBlur stdDeviation="2"/>
<feComposite in2="hardAlpha" operator="out"/>
<feColorMatrix type="matrix" values="0 0 0 0 0 0 0 0 0 0 0 0 0 0 0 0 0 0 0.25 0"/>
<feBlend mode="normal" in2="effect3_dropShadow_47_229" result="effect4_dropShadow_47_229"/>
<feColorMatrix in="SourceAlpha" type="matrix" values="0 0 0 0 0 0 0 0 0 0 0 0 0 0 0 0 0 0 127 0" result="hardAlpha"/>
<feOffset dy="4"/>
<feGaussianBlur stdDeviation="2"/>
<feComposite in2="hardAlpha" operator="out"/>
<feColorMatrix type="matrix" values="0 0 0 0 0 0 0 0 0 0 0 0 0 0 0 0 0 0 0.25 0"/>
<feBlend mode="normal" in2="effect4_dropShadow_47_229" result="effect5_dropShadow_47_229"/>
<feColorMatrix in="SourceAlpha" type="matrix" values="0 0 0 0 0 0 0 0 0 0 0 0 0 0 0 0 0 0 127 0" result="hardAlpha"/>
<feOffset dy="4"/>
<feGaussianBlur stdDeviation="2"/>
<feComposite in2="hardAlpha" operator="out"/>
<feColorMatrix type="matrix" values="0 0 0 0 0 0 0 0 0 0 0 0 0 0 0 0 0 0 0.25 0"/>
<feBlend mode="normal" in2="effect5_dropShadow_47_229" result="effect6_dropShadow_47_229"/>
<feBlend mode="normal" in="SourceGraphic" in2="effect6_dropShadow_47_229" result="shape"/>
</filter>
</defs>
</svg>
